<?xml version="1.0" standalone="no"?>
<!DOCTYPE svg PUBLIC "-//W3C//DTD SVG 20010904//EN"
 "http://www.w3.org/TR/2001/REC-SVG-20010904/DTD/svg10.dtd">
<svg version="1.0" xmlns="http://www.w3.org/2000/svg"
 width="512.000000pt" height="512.000000pt" viewBox="0 0 512.000000 512.000000"
 preserveAspectRatio="xMidYMid meet">

<g transform="translate(0.000000,512.000000) scale(0.100000,-0.100000)"
fill="#000000" stroke="none">
<path d="M155 5096 c-55 -24 -72 -55 -116 -205 -37 -126 -40 -148 -30 -180 24
-81 5 -74 782 -302 491 -145 727 -219 754 -236 22 -15 133 -104 247 -200 l207
-173 173 187 c95 102 173 187 173 189 0 9 -583 477 -605 486 -54 21 -1516 448
-1535 448 -11 -1 -33 -7 -50 -14z"/>
<path d="M3230 4057 c-14 -7 -80 -75 -147 -152 -128 -146 -163 -172 -208 -155
-14 5 -103 75 -199 155 -95 80 -179 145 -184 145 -6 0 -87 -82 -181 -182
l-169 -182 27 -32 c18 -20 32 -52 39 -90 7 -32 151 -785 322 -1673 242 -1261
316 -1627 337 -1673 34 -77 121 -158 200 -188 68 -26 178 -31 238 -11 22 8
258 110 524 227 266 118 495 214 510 214 34 0 67 -23 87 -61 18 -36 69 -69
106 -69 45 0 519 198 553 231 59 57 72 18 -408 1188 -240 585 -437 1074 -437
1085 0 24 19 52 93 138 26 31 52 71 57 89 10 35 0 91 -23 120 -16 21 -940 823
-991 860 -43 32 -102 38 -146 16z m-711 -494 c36 -37 88 -233 72 -275 -13 -35
-48 -58 -87 -58 -54 0 -73 25 -105 140 -37 133 -37 154 0 191 39 38 83 39 120
2z m131 -468 c35 -18 34 -16 114 -354 60 -254 64 -276 51 -307 -31 -75 -133
-73 -163 3 -6 15 -41 154 -77 308 -57 241 -64 283 -54 308 23 54 73 71 129 42z
m865 -681 c114 -29 220 -111 273 -212 41 -76 475 -1368 474 -1410 0 -18 -8
-42 -17 -52 -27 -30 -317 -153 -326 -139 -4 7 -100 290 -214 628 -114 339
-218 638 -232 666 -63 124 -119 187 -283 318 -69 55 -131 106 -139 113 -21 20
55 53 184 80 131 27 200 29 280 8z m-470 -319 c151 -119 208 -178 253 -263 39
-73 456 -1312 445 -1322 -19 -17 -427 -190 -461 -196 -83 -13 -180 43 -215
123 -10 22 -64 352 -128 773 -117 775 -119 801 -84 900 16 46 41 90 51 90 3 0
66 -47 139 -105z"/>
<path d="M409 3598 c-131 -164 -314 -482 -374 -648 -68 -190 -30 -369 105
-493 70 -65 140 -101 230 -117 230 -42 456 89 521 302 25 82 23 211 -5 293
-28 81 -150 322 -219 431 -73 116 -196 284 -208 284 -5 0 -27 -24 -50 -52z"/>
</g>
</svg>
