<?xml version="1.0" standalone="no"?>
<!DOCTYPE svg PUBLIC "-//W3C//DTD SVG 20010904//EN"
 "http://www.w3.org/TR/2001/REC-SVG-20010904/DTD/svg10.dtd">
<svg version="1.0" xmlns="http://www.w3.org/2000/svg"
 width="512.000000pt" height="512.000000pt" viewBox="0 0 512.000000 512.000000"
 preserveAspectRatio="xMidYMid meet">

<g transform="translate(0.000000,512.000000) scale(0.100000,-0.100000)"
fill="#000000" stroke="none">
<path d="M2380 5114 c-531 -49 -1001 -264 -1384 -634 -434 -419 -686 -1015
-686 -1626 0 -657 314 -1321 818 -1728 40 -32 72 -61 72 -65 0 -3 -56 -175
-123 -381 l-123 -375 -269 -5 c-233 -4 -274 -7 -302 -23 -38 -20 -73 -82 -73
-127 0 -50 35 -107 80 -130 39 -20 54 -20 2170 -20 2116 0 2131 0 2170 20 45
23 80 80 80 130 0 45 -35 107 -73 127 -28 16 -69 19 -302 23 l-269 5 -123 375
c-68 206 -123 378 -123 381 0 3 30 30 67 60 37 30 110 97 163 149 869 869 879
2276 20 3164 -123 127 -220 208 -375 311 -269 180 -578 300 -900 350 -97 15
-425 27 -515 19z m378 -305 c197 -21 427 -82 591 -156 l65 -29 -155 -62 c-84
-34 -168 -71 -185 -81 -48 -29 -64 -75 -64 -180 l0 -91 -193 0 -192 0 -130
131 c-72 72 -147 139 -167 150 -31 16 -58 19 -170 19 l-133 0 -89 89 -88 88
109 36 c257 83 544 114 801 86z m-1088 -374 l104 -105 -132 -267 c-144 -291
-149 -308 -109 -377 42 -73 126 -96 202 -53 37 20 50 41 180 299 l140 278 70
0 70 0 107 -107 108 -108 0 -202 c0 -187 -1 -203 -17 -203 -10 0 -48 -11 -86
-24 -200 -71 -390 -264 -456 -463 -12 -34 -21 -69 -21 -78 0 -13 -26 -15 -188
-15 l-187 0 -245 489 -244 489 59 78 c72 94 236 261 322 327 75 57 204 147
212 147 4 0 53 -47 111 -105z m2175 -104 c110 -98 183 -176 280 -306 69 -92
155 -231 155 -252 0 -8 -68 -115 -150 -238 l-150 -225 -126 0 c-105 0 -131 -3
-164 -20 -60 -31 -80 -78 -80 -190 l0 -90 -158 0 -158 0 -14 52 c-56 219 -248
426 -467 504 -38 13 -76 24 -85 24 -16 0 -18 14 -18 160 l0 160 205 0 205 0
300 -150 c327 -163 343 -168 414 -127 73 42 96 126 53 202 -20 37 -41 50 -299
180 l-278 140 0 51 0 52 198 80 c108 44 206 81 217 81 12 1 61 -36 120 -88z
m-2787 -1558 c-121 -123 -148 -162 -148 -213 0 -51 26 -89 141 -205 l110 -111
-142 -189 -142 -189 -55 109 c-256 511 -280 1081 -69 1619 l31 78 195 -391
196 -391 -117 -117z m3412 477 c53 -262 52 -520 -1 -784 -17 -86 -72 -275 -86
-300 -3 -4 -111 97 -239 225 l-234 234 0 192 0 193 90 0 c139 0 140 1 293 230
l131 195 13 -45 c7 -25 22 -88 33 -140z m-1818 49 c86 -19 158 -59 223 -124
259 -258 118 -695 -244 -757 -141 -24 -281 22 -386 127 -178 177 -178 454 -1
630 111 111 258 156 408 124z m-822 -606 c1 -37 50 -156 94 -226 24 -39 77
-103 115 -142 l71 -69 0 -523 0 -523 -297 0 -298 0 -95 68 c-52 37 -155 126
-229 198 l-133 131 158 211 159 212 95 -94 c52 -52 109 -101 127 -110 122 -61
258 75 197 197 -9 18 -129 146 -267 284 l-252 253 75 75 74 75 203 0 c187 0
203 -1 203 -17z m1780 -73 c0 -63 5 -101 16 -123 9 -18 62 -78 117 -135 l102
-102 -252 -253 c-138 -138 -258 -266 -267 -284 -61 -122 75 -258 197 -197 18
9 146 129 285 267 l252 252 90 -90 91 -91 -56 -83 c-123 -183 -312 -379 -486
-503 l-94 -68 -297 0 -298 0 0 523 0 523 66 64 c103 100 189 247 209 353 l7
37 159 0 159 0 0 -90z m-900 -957 l0 -453 -150 0 -150 0 0 453 0 452 150 0
150 0 0 -452z m1041 -1053 c54 -162 98 -298 98 -302 1 -5 -580 -8 -1290 -8
l-1290 0 7 23 c37 118 187 574 191 580 2 4 495 6 1096 5 l1091 -3 97 -295z"/>
</g>
</svg>
